<svg xmlns="http://www.w3.org/2000/svg" xmlns:xlink="http://www.w3.org/1999/xlink" id="Layer_1" width="60" height="60" x="0" y="0" enable-background="new 0 0 60 60" version="1.1" viewBox="0 0 60 60" xml:space="preserve"><g><path d="M49.732,32.326v-4.974c0-0.674-0.246-1.257-0.738-1.749c-0.492-0.492-1.075-0.738-1.749-0.738H12.433 c-0.674,0-1.257,0.246-1.749,0.738s-0.738,1.075-0.738,1.749v4.974c0,0.674,0.246,1.257,0.738,1.749s1.075,0.738,1.749,0.738 h34.812c0.674,0,1.257-0.246,1.749-0.738C49.486,33.582,49.732,33,49.732,32.326z M59.679,11.19v37.299 c0,3.082-1.094,5.718-3.283,7.907c-2.189,2.189-4.824,3.284-7.907,3.283H11.19c-3.082,0-5.718-1.094-7.907-3.283 S-0.001,51.572,0,48.489V11.19c0-3.082,1.094-5.718,3.283-7.907S8.107-0.001,11.19,0h37.299c3.082,0,5.718,1.094,7.907,3.283 S59.68,8.107,59.679,11.19z"/></g></svg>