<svg xmlns="http://www.w3.org/2000/svg" xmlns:xlink="http://www.w3.org/1999/xlink" id="Layer_1" width="60" height="60" x="0" y="0" enable-background="new 0 0 60 60" version="1.1" viewBox="0 0 60 60" xml:space="preserve"><g><path d="M49.732,32.326v-4.974c0-0.674-0.246-1.257-0.738-1.749c-0.492-0.492-1.075-0.738-1.749-0.738H34.812V12.433 c0-0.674-0.246-1.257-0.738-1.749S33,9.946,32.326,9.946h-4.974c-0.674,0-1.257,0.246-1.749,0.738s-0.738,1.075-0.738,1.749v12.433 H12.433c-0.674,0-1.257,0.246-1.749,0.738s-0.738,1.075-0.738,1.749v4.974c0,0.674,0.246,1.257,0.738,1.749 s1.075,0.738,1.749,0.738h12.433v12.433c0,0.674,0.246,1.257,0.738,1.749s1.075,0.738,1.749,0.738h4.974 c0.674,0,1.257-0.246,1.749-0.738s0.738-1.075,0.738-1.749V34.812h12.433c0.674,0,1.257-0.246,1.749-0.738 C49.486,33.582,49.732,33,49.732,32.326z M59.679,11.19v37.299c0,3.082-1.094,5.718-3.283,7.907 c-2.189,2.189-4.824,3.284-7.907,3.283H11.19c-3.082,0-5.718-1.094-7.907-3.283S-0.001,51.572,0,48.489V11.19 c0-3.082,1.094-5.718,3.283-7.907S8.107-0.001,11.19,0h37.299c3.082,0,5.718,1.094,7.907,3.283S59.68,8.107,59.679,11.19z"/></g></svg>