<svg xmlns="http://www.w3.org/2000/svg" xmlns:xlink="http://www.w3.org/1999/xlink" width="1024" height="1024" version="1.1" viewBox="0 0 1024 1024"><path d="M832 172.306c76.466 0 145.092-41.622 192-73.106v595.69c-46.908 31.486-115.534 73.11-192 73.11s-145.092-22.67-192-54.156c-46.908-31.48-115.534-54.15-192-54.15s-145.090 38.916-192 70.396v-595.69c46.91-31.484 115.534-70.4 192-70.4s145.092 22.668 192 54.152c46.908 31.484 115.534 54.154 192 54.154zM128 0c35.346 0 64 28.654 64 64v960h-128v-960c0-35.346 28.654-64 64-64z"/></svg>